<?xml version="1.0" encoding="UTF-8"?><svg id="Layer_1" xmlns="http://www.w3.org/2000/svg" viewBox="0 0 80 50"><defs><style>.cls-1{stroke-width:4px;}.cls-1,.cls-2{fill:#fff;}.cls-1,.cls-2,.cls-3,.cls-4{stroke:#001689;stroke-miterlimit:10;}.cls-5{fill:#00a7e1;}.cls-2,.cls-4{stroke-width:3px;}.cls-3{fill:#001689;}.cls-4{fill:none;}</style></defs><path class="cls-5" d="M72.4,9.95C70.28,4.12,64.69,.21,58.49,.21c-1.1,0-2.2,.12-3.27,.37-.51,.1-1.09,.27-1.79,.53-.58,.21-1.16,.45-1.68,.73-2.93,1.49-5.26,3.89-6.67,6.92-.02,.04-.04,.08-.05,.12,.87,.18,1.7,.4,2.48,.69,.58-1.18,1.34-2.24,2.24-3.15,.13,.49,.31,.99,.51,1.52l.4,1.1-2.34,.85c1.02,.44,1.94,.99,2.77,1.68l.43-.16,.3,.82c.31,.31,.6,.64,.88,.99,1.94,2.48,2.52,5.38,2.69,8.81l.08,.22-.07,.03c.04,.86,.05,1.75,.06,2.67l.88-.32,.35,.95c.99,.02,1.91,.08,2.76,.16-.11-.26-.21-.56-.33-.89l-.4-1.1,5.25-1.91,.4,1.1c.38,1.03,.65,1.78,.5,2.23-.08,.25-.33,.48-.76,.73-.35,.18-.71,.35-1.09,.49,1.19,.35,2.15,.82,2.91,1.4,6.09-3.52,8.97-11.03,6.49-17.86h0Zm-2.88-.3l-6.46,2.35-1.54-4.23,5.16-1.88c1.17,1.04,2.14,2.32,2.84,3.76Zm-5.39-5.52l-3.47,1.26-.4-1.1c-.19-.53-.38-1.03-.59-1.49,1.58,.15,3.09,.61,4.46,1.32h0Zm-11.5,2.94c-.38-1.03-.65-1.78-.5-2.23,.08-.25,.33-.49,.78-.74,.45-.23,.91-.43,1.39-.6,.47-.17,.94-.31,1.43-.42,.2-.04,.39-.06,.56-.06,.3,0,.45,.07,.54,.12,.41,.25,.68,.99,1.05,2.03l.4,1.1-5.25,1.91-.4-1.1h0Zm2.81,7.71l-1.54-4.23,5.25-1.91,1.54,4.23-5.25,1.91Zm2.41,6.61l-1.54-4.23,5.25-1.91,1.54,4.23-5.25,1.91Zm6.09-7.01l6.46-2.35c.4,1.57,.46,3.17,.24,4.7l-5.16,1.88-1.54-4.23h0Zm2.81,7.71l-.4-1.1,3.47-1.26c-.6,1.43-1.47,2.75-2.57,3.88-.13-.49-.31-.99-.5-1.52h0Z"/><path class="cls-1" d="M66.69,29.63c-1.82-2.21-6.88-2.66-11.06-2.66-.21,0-1.9,0-2.1,0v-.6c0-5.73,0-9.88-2.69-13.13-3.12-3.76-8.52-4.53-15.67-4.53s-12.55,.77-15.67,4.54c-1.56,1.88-2.21,4.06-2.49,6.68-4.17,.1-7.34,.75-9.25,3.06-1.82,2.2-1.82,3.56-1.82,7.45s0,5.32,1.82,7.52c1.83,2.22,4.82,2.9,8.74,3.04,0,1.38,.23,3.43,.72,4.27,1.23,2.1,3.01,2.53,5.31,2.52,1.53,0,38.67,0,38.67,0,2.47-.16,4.24-1.25,5.48-2.75,1.57-1.9,1.57-4.34,1.57-7.7s0-5.79-1.57-7.7h0Z"/><path class="cls-2" d="M31.01,25.59c-.63,.28-1.16,.66-1.58,1.16-1.15,1.38-1.15,3.26-1.15,5.86s0,4.48,1.15,5.86c1.33,1.6,3.77,1.93,7.01,1.93s5.67-.33,7.01-1.93c1.15-1.38,1.15-3.26,1.15-5.86s0-4.48-1.15-5.86c-.38-.45-.84-.8-1.39-1.07"/><path class="cls-2" d="M42.25,25.68c.08-.66,.08-.77,.08-1.64,0-1.91,0-3.28-.83-4.29-.96-1.17-2.72-1.41-5.06-1.41s-4.1,.24-5.06,1.41c-.83,1.01-.83,2.39-.83,4.29,0,.87,0,.97,.08,1.64,1.65-.36,3.6-.47,5.81-.47s4.17,.11,5.81,.47h0Z"/><path class="cls-3" d="M38.33,31.18c0,1.04-.85,1.88-1.89,1.88s-1.89-.84-1.89-1.88,.85-1.88,1.89-1.88,1.89,.84,1.89,1.88"/><line class="cls-4" x1="36.43" y1="35.82" x2="36.43" y2="31.49"/></svg>