<svg xmlns="http://www.w3.org/2000/svg" version="1.1" xmlns:xlink="http://www.w3.org/1999/xlink" xmlns:svgjs="http://svgjs.dev/svgjs" width="1000" height="181" viewBox="0 0 1000 181"><g transform="matrix(1,0,0,1,-0.606043631843761,0.612610360017797)"><svg viewBox="0 0 396 72" data-background-color="#ffffff" preserveAspectRatio="xMidYMid meet" height="181" width="1000" xmlns="http://www.w3.org/2000/svg" xmlns:xlink="http://www.w3.org/1999/xlink"><g id="tight-bounds" transform="matrix(1,0,0,1,0.23999327821013594,-0.24369030895735477)"><svg viewBox="0 0 395.52 72.48738061791474" height="72.48738061791474" width="395.52"><g><svg viewBox="0 0 531.5943914617313 97.42588235294114" height="72.48738061791474" width="395.52"><g><rect width="8.742255337411764" height="97.42588235294114" x="104.44665094784901" y="0" fill="#0063db" opacity="1" stroke-width="0" stroke="transparent" fill-opacity="1" class="rect-o-0" data-fill-palette-color="primary" rx="1%" id="o-0" data-palette-color="#0063db"></rect></g><g transform="matrix(1,0,0,1,136.07439146173135,0.24235294117646333)"><svg viewBox="0 0 395.52 96.94117647058822" height="96.94117647058822" width="395.52"><g id="textblocktransform"><svg viewBox="0 0 395.52 96.94117647058822" height="96.94117647058822" width="395.52" id="textblock"><g><svg viewBox="0 0 395.52 96.94117647058822" height="96.94117647058822" width="395.52"><g transform="matrix(1,0,0,1,0,0)"><svg width="395.52" viewBox="4.050000190734863 -34.95000076293945 142.7899932861328 35" height="96.94117647058822" data-palette-color="#0063db"><path d="M10.7-34.55L10.7-34.55Q13.2-34.55 15.73-34.55 18.25-34.55 20.73-34.48 23.2-34.4 25.5-34.25L25.5-34.25 25.3-30.8 11.45-30.8Q9.9-30.8 9.18-30.03 8.45-29.25 8.45-27.5L8.45-27.5 8.45-7Q8.45-5.25 9.18-4.45 9.9-3.65 11.45-3.65L11.45-3.65 25.3-3.65 25.5-0.25Q23.2-0.1 20.73-0.05 18.25 0 15.73 0.03 13.2 0.05 10.7 0.05L10.7 0.05Q7.65 0.05 5.88-1.58 4.1-3.2 4.05-5.95L4.05-5.95 4.05-28.55Q4.1-31.35 5.88-32.95 7.65-34.55 10.7-34.55ZM4.95-16.45L4.95-20 23.35-20 23.35-16.45 4.95-16.45ZM51.1-34.5L55.9-34.5 45.85-20.2Q45.4-19.55 44.97-19.07 44.55-18.6 43.95-18L43.95-18 43.95-17.9Q44.6-17.3 45.15-16.7 45.7-16.1 46.1-15.5L46.1-15.5 56.6 0 51.65 0 39.4-18.05 51.1-34.5ZM32.35-34.5L36.7-34.5 36.7-23.7Q36.7-22.2 36.55-20.85 36.4-19.5 36.1-18.05L36.1-18.05Q36.35-16.65 36.52-15.25 36.7-13.85 36.7-12.55L36.7-12.55 36.7 0 32.35 0 32.35-34.5ZM35.15-19.75L41.8-19.75 41.8-16.2 35.15-16.2 35.15-19.75ZM70.8-34.5L75.4-34.5Q76-34.5 76.45-34.18 76.9-33.85 77.05-33.3L77.05-33.3 88.15 0 83.59 0 74.65-28.3Q74.45-29 74.22-29.73 74-30.45 73.8-31.1L73.8-31.1 72.4-31.1Q72.2-30.45 72-29.73 71.8-29 71.55-28.3L71.55-28.3 62.59 0 58.05 0 69.15-33.3Q69.3-33.85 69.75-34.18 70.2-34.5 70.8-34.5L70.8-34.5ZM64.3-14.6L81.8-14.6 81.8-10.8 64.3-10.8 64.3-14.6ZM104.89-34.95L104.89-34.95Q108.89-34.95 111.34-34.08 113.79-33.2 114.92-31.05 116.04-28.9 116.04-25L116.04-25Q116.04-22.2 115.39-20.33 114.74-18.45 113.37-17.43 111.99-16.4 109.69-16.1L109.69-16.1 109.69-15.85Q110.54-15.65 111.37-15.03 112.19-14.4 112.89-13.38 113.59-12.35 113.94-10.9L113.94-10.9 117.29 0 112.59 0 109.54-10.8Q108.89-12.75 107.79-13.58 106.69-14.4 104.94-14.4L104.94-14.4Q101.89-14.4 99.64-14.43 97.39-14.45 95.89-14.5 94.39-14.55 93.49-14.55L93.49-14.55 93.64-18.2 104.79-18.2Q107.34-18.25 108.82-18.8 110.29-19.35 110.94-20.78 111.59-22.2 111.59-24.75L111.59-24.75Q111.59-27.3 110.94-28.68 110.29-30.05 108.82-30.6 107.34-31.15 104.79-31.15L104.79-31.15Q100.69-31.15 97.72-31.1 94.74-31.05 93.69-31.05L93.69-31.05 92.99-34.5Q94.89-34.7 96.54-34.8 98.19-34.9 100.17-34.93 102.14-34.95 104.89-34.95ZM92.99-34.5L97.34-34.5 97.34 0 92.99 0 92.99-34.5ZM131.29-34.5L135.69-34.5 135.69 0 131.29 0 131.29-34.5ZM120.19-34.5L146.84-34.5 146.84-30.6 120.19-30.6 120.19-34.5Z" opacity="1" transform="matrix(1,0,0,1,0,0)" fill="#0063db" class="wordmark-text-0" data-fill-palette-color="primary" id="text-0"></path></svg></g></svg></g></svg></g></svg></g><g transform="matrix(1,0,0,1,0,0.24235294117646333)"><svg viewBox="0 0 81.56116577137843 96.94117647058822" height="96.94117647058822" width="81.56116577137843"><g><svg xmlns="http://www.w3.org/2000/svg" xmlns:xlink="http://www.w3.org/1999/xlink" xmlns:a="http://ns.adobe.com/AdobeSVGViewerExtensions/3.0/" version="1.1" x="0" y="0" viewBox="0 0 31.828998565673828 37.83100128173828" enable-background="new -4 -1.012 40 40" xml:space="preserve" height="96.94117647058822" width="81.56116577137843" class="icon-icon-0" data-fill-palette-color="accent" id="icon-0"><path d="M14.325 0H4.338C1.463 0 0 1.463 0 4.338v18.615c0 2.875 1.463 4.338 4.338 4.338h23.153c2.875 0 4.338-1.463 4.338-4.338v-7.314c-2.369 2.169-5.195 3.278-8.472 3.278-3.331 0-6.206-1.109-8.576-3.328-2.373-2.221-3.531-4.894-3.531-8.021C11.25 4.642 12.26 2.121 14.325 0L14.325 0z" fill="#d90000" data-fill-palette-color="accent"></path><path d="M29.055 2.221C27.543 0.808 25.727 0.052 23.606 0h-0.453c-2.117 0.052-3.934 0.757-5.497 2.221S15.287 5.5 15.287 7.567c0 2.067 0.806 3.883 2.369 5.346 1.563 1.463 3.48 2.221 5.701 2.221 2.218 0 4.134-0.757 5.697-2.221 1.564-1.463 2.373-3.279 2.373-5.346C31.428 5.5 30.619 3.684 29.055 2.221L29.055 2.221z" fill="#d90000" data-fill-palette-color="accent"></path><path d="M26.734 29.913c-0.907-0.906-2.018-1.362-3.276-1.362-1.263 0-2.373 0.456-3.28 1.362-0.909 0.908-1.362 2.018-1.362 3.28 0 1.259 0.453 2.369 1.362 3.279 0.907 0.906 2.018 1.359 3.28 1.359 1.259 0 2.369-0.453 3.276-1.359 0.909-0.91 1.362-2.021 1.362-3.279C28.097 31.93 27.644 30.821 26.734 29.913L26.734 29.913z" fill="#d90000" data-fill-palette-color="accent"></path><path d="M11.603 29.913c-0.906-0.906-2.017-1.362-3.279-1.362-1.259 0-2.37 0.456-3.276 1.362-0.91 0.908-1.363 2.018-1.363 3.28 0 1.259 0.453 2.369 1.363 3.279 0.906 0.906 2.017 1.359 3.276 1.359 1.262 0 2.373-0.453 3.279-1.359 0.909-0.91 1.362-2.021 1.362-3.279C12.965 31.93 12.512 30.821 11.603 29.913L11.603 29.913z" fill="#d90000" data-fill-palette-color="accent"></path></svg></g></svg></g></svg></g><defs></defs></svg><rect width="395.52" height="72.48738061791474" fill="none" stroke="none" visibility="hidden"></rect></g></svg></g></svg>